<svg width="8" height="8" viewBox="0 0 8 8" fill="none" xmlns="http://www.w3.org/2000/svg">
<g clip-path="url(#clip0_590_536)">
<path d="M3.84162 0.765046C3.85622 0.735533 3.87879 0.71069 3.90677 0.693321C3.93474 0.675952 3.96702 0.666748 3.99995 0.666748C4.03288 0.666748 4.06515 0.675952 4.09313 0.693321C4.12111 0.71069 4.14367 0.735533 4.15828 0.765046L4.92828 2.32471C4.97901 2.42737 5.05389 2.51618 5.14649 2.58353C5.23909 2.65088 5.34666 2.69475 5.45995 2.71138L7.18195 2.96338C7.21458 2.96811 7.24523 2.98187 7.27045 3.00311C7.29566 3.02435 7.31443 3.05223 7.32462 3.08358C7.33482 3.11493 7.33604 3.14851 7.32814 3.18052C7.32025 3.21253 7.30356 3.2417 7.27995 3.26471L6.03462 4.47738C5.95249 4.55741 5.89104 4.65621 5.85556 4.76526C5.82008 4.8743 5.81164 4.99034 5.83095 5.10338L6.12495 6.81671C6.13071 6.84933 6.12719 6.8829 6.11478 6.91361C6.10238 6.94431 6.08159 6.97092 6.0548 6.99038C6.028 7.00984 5.99628 7.02138 5.96324 7.02368C5.9302 7.02598 5.89718 7.01894 5.86795 7.00338L4.32862 6.19405C4.22719 6.14079 4.11434 6.11296 3.99978 6.11296C3.88522 6.11296 3.77238 6.14079 3.67095 6.19405L2.13195 7.00338C2.10273 7.01885 2.06975 7.02581 2.03677 7.02346C2.00378 7.02112 1.97212 7.00957 1.94538 6.99012C1.91864 6.97067 1.89789 6.94411 1.8855 6.91345C1.87311 6.8828 1.86957 6.84928 1.87528 6.81671L2.16895 5.10371C2.18835 4.99062 2.17994 4.87451 2.14446 4.76539C2.10898 4.65628 2.04748 4.55743 1.96528 4.47738L0.719949 3.26505C0.696147 3.24206 0.67928 3.21284 0.67127 3.18074C0.663259 3.14863 0.664428 3.11492 0.674642 3.08344C0.684856 3.05197 0.703705 3.02399 0.729041 3.00271C0.754378 2.98142 0.785183 2.96768 0.817949 2.96305L2.53962 2.71138C2.65303 2.69488 2.76075 2.65106 2.85348 2.58371C2.94621 2.51635 3.02118 2.42747 3.07195 2.32471L3.84162 0.765046Z" fill="#2266CF" stroke="#2266CF" stroke-width="0.509479" stroke-linecap="round" stroke-linejoin="round"/>
</g>
<defs>
<clipPath id="clip0_590_536">
<rect width="8" height="8" fill="white"/>
</clipPath>
</defs>
</svg>
